<mxfile host="app.diagrams.net" modified="2023-09-20T06:17:11.059Z" agent="Mozilla/5.0 (Windows NT 10.0; Win64; x64) AppleWebKit/537.36 (KHTML, like Gecko) Chrome/116.0.0.0 Safari/537.36" etag="mrQfASuk4lSDsVeRkZN8" version="21.7.5" type="github">
  <diagram name="Page-1" id="c7558073-3199-34d8-9f00-42111426c3f3">
    <mxGraphModel dx="1050" dy="542" grid="1" gridSize="10" guides="1" tooltips="1" connect="1" arrows="1" fold="1" page="1" pageScale="1" pageWidth="826" pageHeight="1169" background="none" math="0" shadow="0">
      <root>
        <mxCell id="0" />
        <mxCell id="1" parent="0" />
        <mxCell id="MYV4XfDf1QwYgJQ8J3fj-114" value="" style="rounded=1;whiteSpace=wrap;html=1;dashed=1;strokeColor=#33FF33;" vertex="1" parent="1">
          <mxGeometry x="10" y="20" width="250" height="350" as="geometry" />
        </mxCell>
        <mxCell id="MYV4XfDf1QwYgJQ8J3fj-113" value="" style="rounded=1;whiteSpace=wrap;html=1;dashed=1;strokeColor=#0066CC;" vertex="1" parent="1">
          <mxGeometry x="280" y="20" width="470" height="350" as="geometry" />
        </mxCell>
        <mxCell id="MYV4XfDf1QwYgJQ8J3fj-110" style="edgeStyle=orthogonalEdgeStyle;rounded=0;orthogonalLoop=1;jettySize=auto;html=1;entryX=0;entryY=0.5;entryDx=0;entryDy=0;strokeColor=#43be41;" edge="1" parent="1" source="MYV4XfDf1QwYgJQ8J3fj-96" target="MYV4XfDf1QwYgJQ8J3fj-103">
          <mxGeometry relative="1" as="geometry" />
        </mxCell>
        <mxCell id="MYV4XfDf1QwYgJQ8J3fj-111" style="edgeStyle=orthogonalEdgeStyle;rounded=0;orthogonalLoop=1;jettySize=auto;html=1;entryX=0;entryY=0.5;entryDx=0;entryDy=0;entryPerimeter=0;strokeColor=#43BE41;" edge="1" parent="1" source="MYV4XfDf1QwYgJQ8J3fj-96" target="MYV4XfDf1QwYgJQ8J3fj-101">
          <mxGeometry relative="1" as="geometry">
            <Array as="points">
              <mxPoint x="240" y="180" />
              <mxPoint x="240" y="310" />
            </Array>
          </mxGeometry>
        </mxCell>
        <mxCell id="MYV4XfDf1QwYgJQ8J3fj-96" value="XML Management System" style="whiteSpace=wrap;align=center;verticalAlign=middle;fontStyle=1;strokeWidth=3;fillColor=#d5e8d4;strokeColor=#82b366;sketch=1;curveFitting=1;jiggle=2;" vertex="1" parent="1">
          <mxGeometry x="50" y="150" width="140" height="60" as="geometry" />
        </mxCell>
        <mxCell id="MYV4XfDf1QwYgJQ8J3fj-109" style="edgeStyle=orthogonalEdgeStyle;rounded=0;orthogonalLoop=1;jettySize=auto;html=1;strokeColor=#43be41;" edge="1" parent="1" source="MYV4XfDf1QwYgJQ8J3fj-97" target="MYV4XfDf1QwYgJQ8J3fj-96">
          <mxGeometry relative="1" as="geometry" />
        </mxCell>
        <mxCell id="MYV4XfDf1QwYgJQ8J3fj-97" value="Net Share Folder or SFTP files location" style="html=1;verticalLabelPosition=bottom;align=center;labelBackgroundColor=#ffffff;verticalAlign=top;strokeWidth=2;strokeColor=#82b366;shadow=0;dashed=0;shape=mxgraph.ios7.icons.storage;fillColor=#d5e8d4;sketch=1;curveFitting=1;jiggle=2;" vertex="1" parent="1">
          <mxGeometry x="90" y="280" width="60" height="20" as="geometry" />
        </mxCell>
        <mxCell id="MYV4XfDf1QwYgJQ8J3fj-101" value="RDBMS" style="strokeWidth=2;html=1;shape=mxgraph.flowchart.database;whiteSpace=wrap;fillColor=#dae8fc;strokeColor=#6c8ebf;sketch=1;curveFitting=1;jiggle=2;" vertex="1" parent="1">
          <mxGeometry x="340" y="280" width="60" height="60" as="geometry" />
        </mxCell>
        <mxCell id="MYV4XfDf1QwYgJQ8J3fj-108" style="edgeStyle=orthogonalEdgeStyle;rounded=0;orthogonalLoop=1;jettySize=auto;html=1;entryX=0;entryY=0.5;entryDx=0;entryDy=0;strokeColor=#007FFF;" edge="1" parent="1" source="MYV4XfDf1QwYgJQ8J3fj-103" target="MYV4XfDf1QwYgJQ8J3fj-105">
          <mxGeometry relative="1" as="geometry" />
        </mxCell>
        <mxCell id="MYV4XfDf1QwYgJQ8J3fj-103" value="Bridge" style="whiteSpace=wrap;align=center;verticalAlign=middle;fontStyle=1;strokeWidth=3;fillColor=#dae8fc;strokeColor=#6c8ebf;rounded=1;sketch=1;curveFitting=1;jiggle=2;" vertex="1" parent="1">
          <mxGeometry x="326" y="150" width="90" height="60" as="geometry" />
        </mxCell>
        <mxCell id="MYV4XfDf1QwYgJQ8J3fj-107" style="edgeStyle=orthogonalEdgeStyle;rounded=0;orthogonalLoop=1;jettySize=auto;html=1;entryX=0.5;entryY=0;entryDx=0;entryDy=0;strokeColor=#007FFF;" edge="1" parent="1" source="MYV4XfDf1QwYgJQ8J3fj-104" target="MYV4XfDf1QwYgJQ8J3fj-103">
          <mxGeometry relative="1" as="geometry" />
        </mxCell>
        <mxCell id="MYV4XfDf1QwYgJQ8J3fj-104" value="Unicase" style="whiteSpace=wrap;align=center;verticalAlign=middle;fontStyle=1;strokeWidth=3;fillColor=#dae8fc;strokeColor=#6c8ebf;rounded=1;sketch=1;curveFitting=1;jiggle=2;" vertex="1" parent="1">
          <mxGeometry x="326" y="40" width="90" height="60" as="geometry" />
        </mxCell>
        <mxCell id="MYV4XfDf1QwYgJQ8J3fj-105" value="Elastic" style="whiteSpace=wrap;align=center;verticalAlign=middle;fontStyle=1;strokeWidth=3;fillColor=#dae8fc;strokeColor=#6c8ebf;rounded=1;sketch=1;curveFitting=1;jiggle=2;" vertex="1" parent="1">
          <mxGeometry x="540" y="150" width="200" height="60" as="geometry" />
        </mxCell>
        <mxCell id="MYV4XfDf1QwYgJQ8J3fj-106" style="edgeStyle=orthogonalEdgeStyle;rounded=0;orthogonalLoop=1;jettySize=auto;html=1;entryX=1;entryY=0.5;entryDx=0;entryDy=0;entryPerimeter=0;exitX=1;exitY=0.5;exitDx=0;exitDy=0;strokeColor=#007FFF;" edge="1" parent="1" source="MYV4XfDf1QwYgJQ8J3fj-104" target="MYV4XfDf1QwYgJQ8J3fj-101">
          <mxGeometry relative="1" as="geometry" />
        </mxCell>
      </root>
    </mxGraphModel>
  </diagram>
</mxfile>
